<svg version="1.1"
  xmlns="http://www.w3.org/2000/svg"
  xmlns:xlink="http://www.w3.org/1999/xlink" width="700" height="700" viewBox="324.5,95,700,700">
  <g fill="#ffa000" fill-rule="nonzero" stroke="none" stroke-width="1" stroke-linecap="butt" stroke-linejoin="miter" stroke-miterlimit="10" stroke-dasharray="" stroke-dashoffset="0" font-family="none" font-weight="none" font-size="none" text-anchor="none" style="mix-blend-mode: normal">
    <g id="stage">
      <g id="layer1 1">
        <g id="Group 1">
          <g id="Group 1">
            <g id="Group 1">
              <path d="M815.34061,243.14496l-54.98739,-145.83695l-74.30219,90.40136l54.98739,145.83695z" id="Path 1"/>
              <path d="M715.60616,364.48903l-54.98739,-145.83695l-74.30219,90.40136l54.98739,145.83695z" id="Path 1"/>
              <path d="M615.87179,485.83317l-54.98739,-145.83695l-74.30219,90.40136l54.98739,145.83695z" id="Path 1"/>
              <path d="M842.03635,265.08655l-74.30219,90.40136l153.72444,25.70626l74.30219,-90.40136z" id="Path 1"/>
              <path d="M667.9997,476.83197l153.72444,25.70626l74.30219,-90.40136l-153.72444,-25.70626z" id="Path 1"/>
              <path d="M568.26533,598.17603l153.72444,25.70626l74.30219,-90.40136l-153.72444,-25.70626z" id="Path 1"/>
              <path d="M537.19799,628.55367l-37.63315,25.99755l18.21813,-41.95512v0l-56.63303,-151.25583l-63.3314,77.05353l47.51552,126.48013l-68.3181,83.12072l54.60484,44.88049l68.3181,-83.12072l133.28712,22.12418l62.8327,-76.44677z" id="Path 1"/>
            </g>
          </g>
        </g>
      </g>
    </g>
  </g>
</svg>